<svg xmlns="http://www.w3.org/2000/svg" viewBox="0 0 161 440.45">
  <g transform="matrix(1.15,0,0,1.15,-5.75,0)" fill="#d72323">
    <path fill-rule="evenodd" d="M5,65 L75,0 L145,65 L75,10 z M5,303 L75,383 L145,298 L75,373 z"/>
  </g>
  <g transform="matrix(0.7126,0,0,0.7126,48.93,103.17)" fill="#d72323">
    <polygon points="68.95,18.036 65.21,8.302 64.669,6.895 63.538,3.966 2.901,27.269 16.209,38.301"/>
    <polygon points="13.868,41.754 8.608,43.771 7.694,41.401 4.121,42.774 10.022,58.139 13.598,56.764 12.658,54.314 17.916,52.295"/>
    <path d="M80.1,52.051v7.861h-5.49v6.326H53.674c-0.425-0.793-1.055-1.449-1.828-1.902V50.072c1.98-1.105,3.344-3.201,3.344-5.634c0-0.687-0.138-1.337-0.332-1.956l20.466-7.865l-5.501-14.311L17.206,40.524l5.499,14.312l20.12-7.73c0.78,1.726,2.306,3.029,4.159,3.545v13.683c-1.435,0.842-2.416,2.387-2.416,4.17c0,2.679,2.169,4.851,4.843,4.851c1.725,0,3.227-0.908,4.084-2.259h21.113v7.087h5.488v7.854h7V52.051H80.1z"/>
  </g>
  <g transform="matrix(3.618,0,0,3.618,6,177.17)" fill="#d72323">
    <path d="M9.32 24.92 l-5.52 0 l0 11.28 l5.56 0 l0 3.8 l-9.36 0 l0 -28.56 l9.36 0 l0 3.8 l-5.56 0 l0 5.88 l5.52 0 l0 3.8 z M6.12 9.16 l-4.48 0 l2.76 -3.68 l4.48 0 z M18.788 40.04 c-3 0 -5.4 -2.44 -5.4 -5.4 l0 -17.96 c0 -2.96 2.4 -5.36 5.4 -5.36 c2.96 0 5.36 2.4 5.36 5.36 l0 17.96 c0 2.96 -2.4 5.4 -5.36 5.4 z M18.788 15.12 c-0.88 0 -1.56 0.72 -1.56 1.56 l0 17.96 c0 0.88 0.68 1.56 1.56 1.56 c0.84 0 1.56 -0.68 1.56 -1.56 l0 -17.96 c0 -0.84 -0.72 -1.56 -1.56 -1.56 z M37.456 33.44 l0.16 -22.16 l3.84 0 l-0.24 28.88 l-5.96 0 l-3.24 -22.36 l0 22.36 l-3.84 0 l0 -28.88 l6.2 0 z"/>
  </g>
</svg>
